<?xml version="1.0" encoding="utf-8"?>
<!-- Svg Vector Icons : http://www.onlinewebfonts.com/icon -->
<!DOCTYPE svg PUBLIC "-//W3C//DTD SVG 1.1//EN" "http://www.w3.org/Graphics/SVG/1.1/DTD/svg11.dtd">
<svg version="1.1" xmlns="http://www.w3.org/2000/svg" xmlns:xlink="http://www.w3.org/1999/xlink" x="0px" y="0px" viewBox="0 0 1000 1000" enable-background="new 0 0 1000 1000" xml:space="preserve">
<metadata> Svg Vector Icons : http://www.onlinewebfonts.com/icon </metadata>
<g><g transform="translate(0.000000,512.000000) scale(0.100000,-0.100000)"><path d="M4980.8,4987.4c0-19.2-7.7-128.5-19.2-245.5c-9.6-115.1-23-303-28.8-416.2l-13.4-207.1h-84.4c-80.5,0-82.5-1.9-107.4-80.6c-11.5-46-23-147.7-23-226.3l-1.9-143.8H5000h297.3l5.8,95.9c7.7,101.6-26.8,291.5-57.5,331.8c-11.5,11.5-51.8,23-92.1,23h-72.9l-13.4,207.1c-5.8,113.2-19.2,301.1-28.8,416.2c-11.5,117-19.2,226.3-19.2,245.5c0,17.3-7.7,32.6-19.2,32.6C4990.4,5020,4980.8,5004.7,4980.8,4987.4z"/><path d="M4750.7,3213.4c0-575.3-57.5-1517-136.2-2240c-36.4-335.6-141.9-1091.2-164.9-1183.3c-9.6-44.1-7.7-44.1,211-44.1H4883l9.6,82.5c38.4,281.9,86.3,1051,90.1,1394.3c1.9,270.4,32.6,212.9,34.5-67.1c3.8-314.5,57.5-1121.9,90.1-1336.7l11.5-72.9h220.5H5560l-11.5,53.7c-147.7,705.8-299.2,2435.6-299.2,3404.1v301.1H5000h-249.3V3213.4z"/><path d="M4328.8-560.8v-153.4l667.4,3.8l665.5,5.8l5.8,149.6l5.8,147.7H5000h-671.2V-560.8z"/><path d="M4319.2-909.9c-80.6-345.2-193.7-782.5-249.3-964.6c-38.4-126.6-72.9-245.5-78.6-262.7c-9.6-32.6,11.5-34.5,276.2-34.5h285.8l59.4,274.2c47.9,222.5,145.8,732.6,186,978.1l9.6,51.8h-239.7C4336.4-867.7,4328.8-869.6,4319.2-909.9z"/><path d="M5201.4-929c46-268.5,132.3-715.3,184.1-955.1l61.4-287.7h285.8c264.7,0,285.7,1.9,276.2,34.5c-5.8,17.3-40.3,136.2-78.6,262.7c-55.6,182.2-168.8,619.5-249.3,964.6c-9.6,40.3-17.3,42.2-251.2,42.2h-239.7L5201.4-929z"/><path d="M3862.7-2338.6c-7.7-5.8-13.4-59.4-13.4-118.9c0-84.4-23-163-103.6-370.1l-103.6-264.6h1350.1c742.2,0,1350.1,5.7,1350.1,15.3c0,7.7-40.3,117-90.1,243.6c-65.2,164.9-94,268.5-101.6,364.4l-9.6,134.2l-1133.4,5.8C4384.4-2327.1,3868.5-2331,3862.7-2338.6z"/><path d="M3385.2-3625.5c-191.8-393.1-421.9-790.1-588.8-1020.3l-97.8-134.2h479.5c418.1,0,479.4,3.8,479.4,28.8c0,17.3,30.7,109.3,67.1,205.2c189.9,491,508.2,830.4,905.2,968.5c128.5,44.1,180.3,51.8,370.1,51.8c189.9,0,241.6-7.7,370.1-51.8c397-138.1,705.7-467.9,903.3-964.6c38.4-95.9,69-189.9,69-207.1c0-26.8,49.9-30.7,479.4-30.7h479.5l-94,130.4c-164.9,222.5-400.8,632.9-592.6,1024.1l-186,377.8H5000H3571.2L3385.2-3625.5z"/></g></g>
</svg>