<svg xmlns="http://www.w3.org/2000/svg" xmlns:xlink="http://www.w3.org/1999/xlink" version="1.1" width="256" height="256" viewBox="0 0 256 256" xml:space="preserve">
<desc>Created with Fabric.js 1.7.22</desc>
<defs>
</defs>
<g transform="translate(128 128) scale(0.72 0.72)" style="">
	<g style="stroke: none; stroke-width: 0; stroke-dasharray: none; stroke-linecap: butt; stroke-linejoin: miter; stroke-miterlimit: 10; fill: none; fill-rule: nonzero; opacity: 1;" transform="translate(-175.05 -175.05000000000004) scale(3.89 3.89)" >
	<path d="M 79.878 23.276 H 10.122 V 5.237 C 10.122 2.345 12.467 0 15.359 0 H 74.64 c 2.892 0 5.237 2.345 5.237 5.237 V 23.276 z" style="stroke: none; stroke-width: 1; stroke-dasharray: none; stroke-linecap: butt; stroke-linejoin: miter; stroke-miterlimit: 10; fill: rgb(247,241,241); fill-rule: nonzero; opacity: 1;" transform=" matrix(1 0 0 1 0 0) " stroke-linecap="round" />
	<path d="M 83.714 29.73 H 6.286 c -0.888 0 -1.608 -0.72 -1.608 -1.608 v -3.239 c 0 -0.888 0.72 -1.608 1.608 -1.608 h 77.428 c 0.888 0 1.608 0.72 1.608 1.608 v 3.239 C 85.321 29.011 84.602 29.73 83.714 29.73 z" style="stroke: none; stroke-width: 1; stroke-dasharray: none; stroke-linecap: butt; stroke-linejoin: miter; stroke-miterlimit: 10; fill: rgb(239,219,219); fill-rule: nonzero; opacity: 1;" transform=" matrix(1 0 0 1 0 0) " stroke-linecap="round" />
	<path d="M 22.042 18.088 c -0.558 0 -1.011 -0.453 -1.011 -1.011 V 7.005 c 0 -0.558 0.453 -1.011 1.011 -1.011 s 1.011 0.453 1.011 1.011 v 10.072 C 23.053 17.635 22.6 18.088 22.042 18.088 z" style="stroke: none; stroke-width: 1; stroke-dasharray: none; stroke-linecap: butt; stroke-linejoin: miter; stroke-miterlimit: 10; fill: rgb(231,117,131); fill-rule: nonzero; opacity: 1;" transform=" matrix(1 0 0 1 0 0) " stroke-linecap="round" />
	<path d="M 27.607 18.088 c -0.558 0 -1.011 -0.453 -1.011 -1.011 V 7.005 c 0 -0.558 0.453 -1.011 1.011 -1.011 s 1.011 0.453 1.011 1.011 v 10.072 C 28.618 17.635 28.165 18.088 27.607 18.088 z" style="stroke: none; stroke-width: 1; stroke-dasharray: none; stroke-linecap: butt; stroke-linejoin: miter; stroke-miterlimit: 10; fill: rgb(231,117,131); fill-rule: nonzero; opacity: 1;" transform=" matrix(1 0 0 1 0 0) " stroke-linecap="round" />
	<path d="M 27.607 13.052 h -5.565 c -0.558 0 -1.011 -0.453 -1.011 -1.011 c 0 -0.558 0.453 -1.011 1.011 -1.011 h 5.565 c 0.558 0 1.011 0.453 1.011 1.011 C 28.618 12.599 28.165 13.052 27.607 13.052 z" style="stroke: none; stroke-width: 1; stroke-dasharray: none; stroke-linecap: butt; stroke-linejoin: miter; stroke-miterlimit: 10; fill: rgb(231,117,131); fill-rule: nonzero; opacity: 1;" transform=" matrix(1 0 0 1 0 0) " stroke-linecap="round" />
	<path d="M 35.34 18.088 h -0.536 c -1.944 0 -3.526 -1.582 -3.526 -3.526 V 9.519 c 0 -1.944 1.582 -3.526 3.526 -3.526 h 0.536 c 1.944 0 3.526 1.582 3.526 3.526 v 5.043 C 38.866 16.507 37.284 18.088 35.34 18.088 z M 34.804 8.016 c -0.829 0 -1.503 0.674 -1.503 1.504 v 5.043 c 0 0.829 0.674 1.504 1.503 1.504 h 0.536 c 0.829 0 1.504 -0.674 1.504 -1.504 V 9.519 c 0 -0.829 -0.674 -1.504 -1.504 -1.504 H 34.804 z" style="stroke: none; stroke-width: 1; stroke-dasharray: none; stroke-linecap: butt; stroke-linejoin: miter; stroke-miterlimit: 10; fill: rgb(231,117,131); fill-rule: nonzero; opacity: 1;" transform=" matrix(1 0 0 1 0 0) " stroke-linecap="round" />
	<path d="M 47.032 8.016 h -5.565 c -0.558 0 -1.011 -0.453 -1.011 -1.011 s 0.453 -1.011 1.011 -1.011 h 5.565 c 0.559 0 1.011 0.453 1.011 1.011 S 47.591 8.016 47.032 8.016 z" style="stroke: none; stroke-width: 1; stroke-dasharray: none; stroke-linecap: butt; stroke-linejoin: miter; stroke-miterlimit: 10; fill: rgb(231,117,131); fill-rule: nonzero; opacity: 1;" transform=" matrix(1 0 0 1 0 0) " stroke-linecap="round" />
	<path d="M 44.25 18.088 c -0.558 0 -1.011 -0.453 -1.011 -1.011 V 7.005 c 0 -0.558 0.453 -1.011 1.011 -1.011 c 0.558 0 1.011 0.453 1.011 1.011 v 10.072 C 45.261 17.635 44.808 18.088 44.25 18.088 z" style="stroke: none; stroke-width: 1; stroke-dasharray: none; stroke-linecap: butt; stroke-linejoin: miter; stroke-miterlimit: 10; fill: rgb(231,117,131); fill-rule: nonzero; opacity: 1;" transform=" matrix(1 0 0 1 0 0) " stroke-linecap="round" />
	<path d="M 56.938 8.016 h -5.565 c -0.559 0 -1.011 -0.453 -1.011 -1.011 s 0.452 -1.011 1.011 -1.011 h 5.565 c 0.559 0 1.011 0.453 1.011 1.011 S 57.497 8.016 56.938 8.016 z" style="stroke: none; stroke-width: 1; stroke-dasharray: none; stroke-linecap: butt; stroke-linejoin: miter; stroke-miterlimit: 10; fill: rgb(231,117,131); fill-rule: nonzero; opacity: 1;" transform=" matrix(1 0 0 1 0 0) " stroke-linecap="round" />
	<path d="M 51.373 18.088 c -0.559 0 -1.011 -0.453 -1.011 -1.011 V 7.005 c 0 -0.558 0.452 -1.011 1.011 -1.011 s 1.011 0.453 1.011 1.011 v 10.072 C 52.385 17.635 51.932 18.088 51.373 18.088 z" style="stroke: none; stroke-width: 1; stroke-dasharray: none; stroke-linecap: butt; stroke-linejoin: miter; stroke-miterlimit: 10; fill: rgb(231,117,131); fill-rule: nonzero; opacity: 1;" transform=" matrix(1 0 0 1 0 0) " stroke-linecap="round" />
	<path d="M 56.938 18.088 h -5.565 c -0.559 0 -1.011 -0.453 -1.011 -1.011 c 0 -0.558 0.452 -1.011 1.011 -1.011 h 5.565 c 0.559 0 1.011 0.453 1.011 1.011 C 57.949 17.635 57.497 18.088 56.938 18.088 z" style="stroke: none; stroke-width: 1; stroke-dasharray: none; stroke-linecap: butt; stroke-linejoin: miter; stroke-miterlimit: 10; fill: rgb(231,117,131); fill-rule: nonzero; opacity: 1;" transform=" matrix(1 0 0 1 0 0) " stroke-linecap="round" />
	<path d="M 56.938 13.052 h -5.565 c -0.559 0 -1.011 -0.453 -1.011 -1.011 c 0 -0.558 0.452 -1.011 1.011 -1.011 h 5.565 c 0.559 0 1.011 0.453 1.011 1.011 C 57.949 12.599 57.497 13.052 56.938 13.052 z" style="stroke: none; stroke-width: 1; stroke-dasharray: none; stroke-linecap: butt; stroke-linejoin: miter; stroke-miterlimit: 10; fill: rgb(231,117,131); fill-rule: nonzero; opacity: 1;" transform=" matrix(1 0 0 1 0 0) " stroke-linecap="round" />
	<path d="M 62.393 18.088 c -0.559 0 -1.011 -0.453 -1.011 -1.011 V 7.005 c 0 -0.558 0.452 -1.011 1.011 -1.011 s 1.011 0.453 1.011 1.011 v 10.072 C 63.404 17.635 62.952 18.088 62.393 18.088 z" style="stroke: none; stroke-width: 1; stroke-dasharray: none; stroke-linecap: butt; stroke-linejoin: miter; stroke-miterlimit: 10; fill: rgb(231,117,131); fill-rule: nonzero; opacity: 1;" transform=" matrix(1 0 0 1 0 0) " stroke-linecap="round" />
	<path d="M 67.958 18.088 h -5.565 c -0.559 0 -1.011 -0.453 -1.011 -1.011 c 0 -0.558 0.452 -1.011 1.011 -1.011 h 5.565 c 0.559 0 1.011 0.453 1.011 1.011 C 68.969 17.635 68.517 18.088 67.958 18.088 z" style="stroke: none; stroke-width: 1; stroke-dasharray: none; stroke-linecap: butt; stroke-linejoin: miter; stroke-miterlimit: 10; fill: rgb(231,117,131); fill-rule: nonzero; opacity: 1;" transform=" matrix(1 0 0 1 0 0) " stroke-linecap="round" />
	<rect x="10.12" y="29.73" rx="0" ry="0" width="69.76" height="59.26" style="stroke: none; stroke-width: 1; stroke-dasharray: none; stroke-linecap: butt; stroke-linejoin: miter; stroke-miterlimit: 10; fill: rgb(246,130,144); fill-rule: nonzero; opacity: 1;" transform=" matrix(1 0 0 1 0 0) "/>
	<path d="M 48.41 54.664 h -6.82 c -0.852 0 -1.543 -0.691 -1.543 -1.543 V 41.646 c 0 -0.852 0.691 -1.543 1.543 -1.543 h 6.82 c 0.852 0 1.543 0.691 1.543 1.543 V 53.12 C 49.953 53.973 49.262 54.664 48.41 54.664 z" style="stroke: none; stroke-width: 1; stroke-dasharray: none; stroke-linecap: butt; stroke-linejoin: miter; stroke-miterlimit: 10; fill: rgb(247,222,126); fill-rule: nonzero; opacity: 1;" transform=" matrix(1 0 0 1 0 0) " stroke-linecap="round" />
	<path d="M 26.634 54.664 h -6.82 c -0.852 0 -1.543 -0.691 -1.543 -1.543 V 41.646 c 0 -0.852 0.691 -1.543 1.543 -1.543 h 6.82 c 0.852 0 1.543 0.691 1.543 1.543 V 53.12 C 28.178 53.973 27.487 54.664 26.634 54.664 z" style="stroke: none; stroke-width: 1; stroke-dasharray: none; stroke-linecap: butt; stroke-linejoin: miter; stroke-miterlimit: 10; fill: rgb(247,222,126); fill-rule: nonzero; opacity: 1;" transform=" matrix(1 0 0 1 0 0) " stroke-linecap="round" />
	<path d="M 70.185 54.664 h -6.82 c -0.852 0 -1.543 -0.691 -1.543 -1.543 V 41.646 c 0 -0.852 0.691 -1.543 1.543 -1.543 h 6.82 c 0.852 0 1.543 0.691 1.543 1.543 V 53.12 C 71.728 53.973 71.037 54.664 70.185 54.664 z" style="stroke: none; stroke-width: 1; stroke-dasharray: none; stroke-linecap: butt; stroke-linejoin: miter; stroke-miterlimit: 10; fill: rgb(247,222,126); fill-rule: nonzero; opacity: 1;" transform=" matrix(1 0 0 1 0 0) " stroke-linecap="round" />
	<path d="M 48.41 78.616 h -6.82 c -0.852 0 -1.543 -0.691 -1.543 -1.543 V 65.599 c 0 -0.852 0.691 -1.543 1.543 -1.543 h 6.82 c 0.852 0 1.543 0.691 1.543 1.543 v 11.474 C 49.953 77.925 49.262 78.616 48.41 78.616 z" style="stroke: none; stroke-width: 1; stroke-dasharray: none; stroke-linecap: butt; stroke-linejoin: miter; stroke-miterlimit: 10; fill: rgb(247,222,126); fill-rule: nonzero; opacity: 1;" transform=" matrix(1 0 0 1 0 0) " stroke-linecap="round" />
	<path d="M 26.634 78.616 h -6.82 c -0.852 0 -1.543 -0.691 -1.543 -1.543 V 65.599 c 0 -0.852 0.691 -1.543 1.543 -1.543 h 6.82 c 0.852 0 1.543 0.691 1.543 1.543 v 11.474 C 28.178 77.925 27.487 78.616 26.634 78.616 z" style="stroke: none; stroke-width: 1; stroke-dasharray: none; stroke-linecap: butt; stroke-linejoin: miter; stroke-miterlimit: 10; fill: rgb(247,222,126); fill-rule: nonzero; opacity: 1;" transform=" matrix(1 0 0 1 0 0) " stroke-linecap="round" />
	<path d="M 70.185 78.616 h -6.82 c -0.852 0 -1.543 -0.691 -1.543 -1.543 V 65.599 c 0 -0.852 0.691 -1.543 1.543 -1.543 h 6.82 c 0.852 0 1.543 0.691 1.543 1.543 v 11.474 C 71.728 77.925 71.037 78.616 70.185 78.616 z" style="stroke: none; stroke-width: 1; stroke-dasharray: none; stroke-linecap: butt; stroke-linejoin: miter; stroke-miterlimit: 10; fill: rgb(247,222,126); fill-rule: nonzero; opacity: 1;" transform=" matrix(1 0 0 1 0 0) " stroke-linecap="round" />
	<path d="M 85.322 90 H 4.678 c -0.558 0 -1.011 -0.452 -1.011 -1.011 s 0.453 -1.011 1.011 -1.011 h 80.644 c 0.559 0 1.011 0.452 1.011 1.011 S 85.881 90 85.322 90 z" style="stroke: none; stroke-width: 1; stroke-dasharray: none; stroke-linecap: butt; stroke-linejoin: miter; stroke-miterlimit: 10; fill: rgb(231,117,131); fill-rule: nonzero; opacity: 1;" transform=" matrix(1 0 0 1 0 0) " stroke-linecap="round" />
</g>
</g>
</svg>